<svg width="446" height="446" viewBox="0 0 446 446" fill="none" xmlns="http://www.w3.org/2000/svg">
<rect width="446" height="446" fill="black"/>
<g filter="url(#filter0_d_1_2)">
<path d="M298.215 186.409C303.687 186.409 302.817 142.896 298.215 127.146C293.613 111.396 284.082 97.5387 271.023 87.6132C257.965 77.6876 242.067 72.2171 225.67 72.0063C209.273 71.7955 193.24 76.8555 179.931 86.4421C166.622 96.0287 156.738 109.636 151.733 125.263C146.728 140.889 147.345 186.409 147.345 186.409L145 190L179.931 186.933C173.142 179.577 171.868 187.457 179.931 186.933C176.776 177.612 177.932 143.999 180.934 134.627C183.935 125.255 189.863 117.095 197.845 111.345C205.827 105.596 215.442 102.561 225.276 102.688C235.11 102.814 244.644 106.095 252.476 112.047C260.308 118 266.024 126.311 268.784 135.756C271.544 145.202 274.417 177.172 271.023 186.409C277.445 185.912 272.361 178.461 271.023 186.409H298.215Z" fill="#BEBEBE"/>
</g>
<g filter="url(#filter1_d_1_2)">
<rect x="119" y="164" width="209" height="150" rx="22" fill="#6C757D"/>
</g>
<g filter="url(#filter2_d_1_2)">
<path d="M158.636 268.273L159.364 248.273L142.455 259L138.091 251.364L155.909 242.091L138.091 232.818L142.455 225.182L159.364 235.909L158.636 215.909H167.364L166.636 235.909L183.545 225.182L187.909 232.818L170.091 242.091L187.909 251.364L183.545 259L166.636 248.273L167.364 268.273H158.636Z" fill="#0D6EFD"/>
</g>
<g filter="url(#filter3_d_1_2)">
<path d="M221.636 268.273L222.364 248.273L205.455 259L201.091 251.364L218.909 242.091L201.091 232.818L205.455 225.182L222.364 235.909L221.636 215.909H230.364L229.636 235.909L246.545 225.182L250.909 232.818L233.091 242.091L250.909 251.364L246.545 259L229.636 248.273L230.364 268.273H221.636Z" fill="#E03838"/>
</g>
<g filter="url(#filter4_d_1_2)">
<path d="M284.636 268.273L285.364 248.273L268.455 259L264.091 251.364L281.909 242.091L264.091 232.818L268.455 225.182L285.364 235.909L284.636 215.909H293.364L292.636 235.909L309.545 225.182L313.909 232.818L296.091 242.091L313.909 251.364L309.545 259L292.636 248.273L293.364 268.273H284.636Z" fill="#0D6EFD"/>
</g>
<path d="M129.369 346.715C129.369 349.035 128.903 351.083 127.972 352.858C127.04 354.634 125.722 356.022 124.017 357.024C122.329 358.026 120.334 358.527 118.031 358.527C116.959 358.527 115.922 358.457 114.92 358.316C113.918 358.193 112.934 357.982 111.967 357.684C111 357.367 110.033 356.954 109.066 356.444V348.877C110.473 349.791 111.932 350.485 113.443 350.96C114.955 351.435 116.353 351.672 117.636 351.672C118.585 351.672 119.367 351.487 119.982 351.118C120.615 350.749 121.081 350.248 121.38 349.615C121.696 348.982 121.854 348.271 121.854 347.479C121.854 346.636 121.723 345.897 121.459 345.265C121.195 344.614 120.686 343.973 119.93 343.34C119.191 342.689 118.102 341.942 116.66 341.099C115.535 340.431 114.516 339.745 113.602 339.042C112.705 338.339 111.932 337.565 111.281 336.722C110.648 335.86 110.165 334.867 109.831 333.742C109.497 332.617 109.33 331.29 109.33 329.761C109.312 327.581 109.734 325.674 110.596 324.039C111.475 322.404 112.731 321.139 114.366 320.242C116.019 319.328 117.996 318.88 120.299 318.897C121.863 318.897 123.393 319.108 124.887 319.53C126.398 319.952 127.849 320.55 129.237 321.323L127.207 327.862C125.959 327.106 124.781 326.553 123.674 326.201C122.566 325.832 121.529 325.647 120.562 325.647C119.719 325.647 119.007 325.814 118.427 326.148C117.864 326.465 117.434 326.904 117.135 327.467C116.854 328.029 116.713 328.671 116.713 329.392C116.713 330.306 116.854 331.079 117.135 331.712C117.416 332.345 117.943 332.969 118.717 333.584C119.508 334.182 120.642 334.902 122.118 335.746C123.718 336.678 125.054 337.671 126.126 338.726C127.198 339.763 128.007 340.932 128.552 342.232C129.097 343.516 129.369 345.01 129.369 346.715Z" fill="#0D6EFD"/>
<path d="M143.634 327.968C145.849 327.968 147.721 328.513 149.25 329.603C150.797 330.692 151.966 332.239 152.757 334.243C153.548 336.229 153.943 338.585 153.943 341.31V345.265H139.863C139.898 347.849 140.373 349.756 141.287 350.986C142.201 352.199 143.599 352.806 145.479 352.806C146.728 352.806 147.905 352.647 149.013 352.331C150.138 351.997 151.333 351.435 152.599 350.644V356.497C151.421 357.2 150.164 357.71 148.828 358.026C147.492 358.36 146.051 358.527 144.504 358.527C141.797 358.527 139.591 357.921 137.886 356.708C136.181 355.478 134.933 353.737 134.142 351.487C133.351 349.22 132.955 346.53 132.955 343.419C132.955 340.097 133.351 337.293 134.142 335.008C134.95 332.705 136.146 330.956 137.728 329.761C139.31 328.565 141.278 327.968 143.634 327.968ZM143.792 333.479C142.632 333.479 141.709 334.006 141.023 335.061C140.338 336.098 139.969 337.803 139.916 340.176H147.431C147.431 338.787 147.29 337.592 147.009 336.59C146.728 335.588 146.314 334.823 145.77 334.296C145.225 333.751 144.565 333.479 143.792 333.479ZM168.709 358.527C166.248 358.527 164.191 357.982 162.539 356.893C160.904 355.785 159.674 354.115 158.848 351.883C158.039 349.633 157.635 346.794 157.635 343.366C157.635 340.378 158.03 337.724 158.821 335.403C159.612 333.065 160.834 331.237 162.486 329.919C164.139 328.583 166.248 327.915 168.814 327.915C170.273 327.915 171.583 328.082 172.743 328.416C173.921 328.732 175.02 329.216 176.039 329.866L174.088 335.482C173.279 334.99 172.479 334.63 171.688 334.401C170.915 334.155 170.133 334.032 169.342 334.032C168.375 334.032 167.549 334.393 166.863 335.113C166.178 335.816 165.65 336.862 165.281 338.251C164.93 339.622 164.754 341.327 164.754 343.366C164.754 345.388 164.93 347.075 165.281 348.429C165.65 349.782 166.178 350.802 166.863 351.487C167.566 352.155 168.428 352.489 169.447 352.489C170.449 352.489 171.46 352.305 172.479 351.936C173.499 351.566 174.492 351.03 175.459 350.327V356.339C174.51 357.095 173.446 357.648 172.269 358C171.108 358.352 169.922 358.527 168.709 358.527ZM201.272 328.469V358H195.762L194.971 354.229H194.575C194.136 355.179 193.6 355.97 192.967 356.603C192.334 357.235 191.604 357.71 190.778 358.026C189.97 358.36 189.064 358.527 188.062 358.527C186.322 358.527 184.872 358.097 183.712 357.235C182.552 356.374 181.682 355.144 181.102 353.544C180.521 351.927 180.231 349.993 180.231 347.743V328.469H187.245V345.634C187.245 347.849 187.465 349.51 187.904 350.617C188.344 351.725 189.056 352.278 190.04 352.278C191.218 352.278 192.105 351.936 192.703 351.25C193.301 350.564 193.705 349.562 193.916 348.244C194.145 346.926 194.259 345.335 194.259 343.472V328.469H201.272ZM220.178 327.915C220.564 327.915 220.942 327.95 221.312 328.021C221.681 328.073 222.111 328.17 222.604 328.311L221.971 335.799C221.619 335.658 221.232 335.562 220.811 335.509C220.406 335.456 219.958 335.43 219.466 335.43C218.657 335.43 217.937 335.605 217.304 335.957C216.671 336.309 216.135 336.818 215.695 337.486C215.273 338.137 214.948 338.928 214.72 339.859C214.509 340.773 214.403 341.802 214.403 342.944V358H207.39V328.469H212.795L213.797 333.32H214.14C214.526 332.389 215.01 331.51 215.59 330.684C216.17 329.857 216.847 329.189 217.62 328.68C218.394 328.17 219.246 327.915 220.178 327.915ZM235.708 327.968C237.923 327.968 239.795 328.513 241.324 329.603C242.871 330.692 244.04 332.239 244.831 334.243C245.622 336.229 246.018 338.585 246.018 341.31V345.265H231.938C231.973 347.849 232.447 349.756 233.361 350.986C234.275 352.199 235.673 352.806 237.554 352.806C238.802 352.806 239.979 352.647 241.087 352.331C242.212 351.997 243.407 351.435 244.673 350.644V356.497C243.495 357.2 242.238 357.71 240.902 358.026C239.566 358.36 238.125 358.527 236.578 358.527C233.871 358.527 231.665 357.921 229.96 356.708C228.255 355.478 227.007 353.737 226.216 351.487C225.425 349.22 225.029 346.53 225.029 343.419C225.029 340.097 225.425 337.293 226.216 335.008C227.024 332.705 228.22 330.956 229.802 329.761C231.384 328.565 233.353 327.968 235.708 327.968ZM235.866 333.479C234.706 333.479 233.783 334.006 233.098 335.061C232.412 336.098 232.043 337.803 231.99 340.176H239.505C239.505 338.787 239.364 337.592 239.083 336.59C238.802 335.588 238.389 334.823 237.844 334.296C237.299 333.751 236.64 333.479 235.866 333.479ZM287.52 327.915C290.385 327.915 292.564 328.803 294.059 330.578C295.57 332.336 296.326 334.964 296.326 338.462V358H291.185L290.051 354.045H289.893C289.295 355.047 288.653 355.882 287.968 356.55C287.3 357.218 286.535 357.71 285.674 358.026C284.812 358.36 283.802 358.527 282.642 358.527C281.007 358.527 279.68 358.088 278.66 357.209C277.658 356.33 276.929 355.188 276.472 353.781C276.015 352.375 275.786 350.881 275.786 349.299C275.786 346.223 276.639 343.894 278.344 342.312C280.049 340.729 282.475 339.877 285.621 339.754L289.286 339.596V338.409C289.286 336.792 289.031 335.588 288.521 334.797C288.029 333.988 287.212 333.584 286.069 333.584C285.226 333.584 284.303 333.751 283.301 334.085C282.299 334.419 281.2 334.938 280.005 335.641L278.054 330.394C279.39 329.585 280.857 328.97 282.457 328.548C284.057 328.126 285.744 327.915 287.52 327.915ZM289.286 344.289L287.309 344.395C285.814 344.465 284.698 344.887 283.96 345.66C283.239 346.416 282.879 347.523 282.879 348.982C282.879 350.301 283.099 351.285 283.538 351.936C283.995 352.586 284.654 352.911 285.516 352.911C286.623 352.911 287.528 352.375 288.231 351.303C288.935 350.23 289.286 348.789 289.286 346.979V344.289ZM318.026 349.352C318.026 351.355 317.648 353.043 316.893 354.414C316.154 355.768 315.073 356.796 313.649 357.499C312.243 358.185 310.547 358.527 308.561 358.527C307.137 358.527 305.774 358.387 304.474 358.105C303.19 357.842 301.978 357.429 300.835 356.866V350.063C301.784 350.714 302.883 351.276 304.131 351.751C305.379 352.208 306.645 352.437 307.928 352.437C308.912 352.437 309.668 352.208 310.195 351.751C310.723 351.294 310.986 350.626 310.986 349.747C310.986 349.255 310.881 348.798 310.67 348.376C310.459 347.937 310.037 347.479 309.404 347.005C308.771 346.513 307.822 345.95 306.557 345.317C305.344 344.649 304.307 343.885 303.445 343.023C302.584 342.162 301.925 341.178 301.468 340.07C301.011 338.963 300.782 337.706 300.782 336.3C300.782 333.698 301.591 331.65 303.208 330.156C304.825 328.662 307.04 327.915 309.853 327.915C311.294 327.915 312.647 328.117 313.913 328.521C315.196 328.908 316.453 329.479 317.684 330.235L315.759 335.641C314.915 335.078 314.027 334.604 313.096 334.217C312.164 333.83 311.215 333.637 310.248 333.637C309.387 333.637 308.728 333.848 308.271 334.27C307.813 334.674 307.585 335.236 307.585 335.957C307.585 336.467 307.69 336.906 307.901 337.275C308.112 337.645 308.525 338.058 309.141 338.515C309.773 338.954 310.696 339.543 311.909 340.281C313.122 340.984 314.186 341.749 315.1 342.575C316.014 343.401 316.726 344.359 317.235 345.449C317.763 346.539 318.026 347.84 318.026 349.352ZM338.224 349.352C338.224 351.355 337.846 353.043 337.09 354.414C336.352 355.768 335.271 356.796 333.847 357.499C332.44 358.185 330.744 358.527 328.758 358.527C327.334 358.527 325.972 358.387 324.671 358.105C323.388 357.842 322.175 357.429 321.032 356.866V350.063C321.981 350.714 323.08 351.276 324.328 351.751C325.576 352.208 326.842 352.437 328.125 352.437C329.109 352.437 329.865 352.208 330.393 351.751C330.92 351.294 331.184 350.626 331.184 349.747C331.184 349.255 331.078 348.798 330.867 348.376C330.656 347.937 330.234 347.479 329.602 347.005C328.969 346.513 328.02 345.95 326.754 345.317C325.541 344.649 324.504 343.885 323.643 343.023C322.781 342.162 322.122 341.178 321.665 340.07C321.208 338.963 320.979 337.706 320.979 336.3C320.979 333.698 321.788 331.65 323.405 330.156C325.022 328.662 327.237 327.915 330.05 327.915C331.491 327.915 332.845 328.117 334.11 328.521C335.394 328.908 336.65 329.479 337.881 330.235L335.956 335.641C335.112 335.078 334.225 334.604 333.293 334.217C332.361 333.83 331.412 333.637 330.445 333.637C329.584 333.637 328.925 333.848 328.468 334.27C328.011 334.674 327.782 335.236 327.782 335.957C327.782 336.467 327.888 336.906 328.099 337.275C328.31 337.645 328.723 338.058 329.338 338.515C329.971 338.954 330.894 339.543 332.106 340.281C333.319 340.984 334.383 341.749 335.297 342.575C336.211 343.401 336.923 344.359 337.433 345.449C337.96 346.539 338.224 347.84 338.224 349.352Z" fill="white"/>
<path d="M260.994 319.451C264.914 319.451 267.823 320.471 269.722 322.51C271.638 324.531 272.596 327.484 272.596 331.369C272.596 333.32 272.35 335.096 271.857 336.695C271.383 338.277 270.653 339.64 269.669 340.782C268.685 341.925 267.445 342.804 265.951 343.419C264.457 344.034 262.69 344.342 260.651 344.342H258.621V358H251.212V319.451H260.994ZM260.44 325.753H258.621V338.014H259.913C261.091 338.014 262.075 337.794 262.866 337.354C263.657 336.915 264.255 336.212 264.659 335.245C265.063 334.278 265.266 333.004 265.266 331.422C265.266 329.453 264.861 328.021 264.053 327.124C263.262 326.21 262.058 325.753 260.44 325.753Z" fill="#E03838"/>
<defs>
<filter id="filter0_d_1_2" x="145" y="72" width="169" height="130" filterUnits="userSpaceOnUse" color-interpolation-filters="sRGB">
<feFlood flood-opacity="0" result="BackgroundImageFix"/>
<feColorMatrix in="SourceAlpha" type="matrix" values="0 0 0 0 0 0 0 0 0 0 0 0 0 0 0 0 0 0 127 0" result="hardAlpha"/>
<feOffset dx="7" dy="7"/>
<feGaussianBlur stdDeviation="2.5"/>
<feComposite in2="hardAlpha" operator="out"/>
<feColorMatrix type="matrix" values="0 0 0 0 1 0 0 0 0 0 0 0 0 0 0 0 0 0 0.44 0"/>
<feBlend mode="normal" in2="BackgroundImageFix" result="effect1_dropShadow_1_2"/>
<feBlend mode="normal" in="SourceGraphic" in2="effect1_dropShadow_1_2" result="shape"/>
</filter>
<filter id="filter1_d_1_2" x="119" y="164" width="221" height="162" filterUnits="userSpaceOnUse" color-interpolation-filters="sRGB">
<feFlood flood-opacity="0" result="BackgroundImageFix"/>
<feColorMatrix in="SourceAlpha" type="matrix" values="0 0 0 0 0 0 0 0 0 0 0 0 0 0 0 0 0 0 127 0" result="hardAlpha"/>
<feOffset dx="7" dy="7"/>
<feGaussianBlur stdDeviation="2.5"/>
<feComposite in2="hardAlpha" operator="out"/>
<feColorMatrix type="matrix" values="0 0 0 0 0.0509804 0 0 0 0 0.431373 0 0 0 0 0.992157 0 0 0 0.44 0"/>
<feBlend mode="normal" in2="BackgroundImageFix" result="effect1_dropShadow_1_2"/>
<feBlend mode="normal" in="SourceGraphic" in2="effect1_dropShadow_1_2" result="shape"/>
</filter>
<filter id="filter2_d_1_2" x="134.091" y="215.909" width="57.8182" height="60.3636" filterUnits="userSpaceOnUse" color-interpolation-filters="sRGB">
<feFlood flood-opacity="0" result="BackgroundImageFix"/>
<feColorMatrix in="SourceAlpha" type="matrix" values="0 0 0 0 0 0 0 0 0 0 0 0 0 0 0 0 0 0 127 0" result="hardAlpha"/>
<feOffset dy="4"/>
<feGaussianBlur stdDeviation="2"/>
<feComposite in2="hardAlpha" operator="out"/>
<feColorMatrix type="matrix" values="0 0 0 0 0 0 0 0 0 0 0 0 0 0 0 0 0 0 0.25 0"/>
<feBlend mode="normal" in2="BackgroundImageFix" result="effect1_dropShadow_1_2"/>
<feBlend mode="normal" in="SourceGraphic" in2="effect1_dropShadow_1_2" result="shape"/>
</filter>
<filter id="filter3_d_1_2" x="197.091" y="215.909" width="57.8182" height="60.3636" filterUnits="userSpaceOnUse" color-interpolation-filters="sRGB">
<feFlood flood-opacity="0" result="BackgroundImageFix"/>
<feColorMatrix in="SourceAlpha" type="matrix" values="0 0 0 0 0 0 0 0 0 0 0 0 0 0 0 0 0 0 127 0" result="hardAlpha"/>
<feOffset dy="4"/>
<feGaussianBlur stdDeviation="2"/>
<feComposite in2="hardAlpha" operator="out"/>
<feColorMatrix type="matrix" values="0 0 0 0 0 0 0 0 0 0 0 0 0 0 0 0 0 0 0.25 0"/>
<feBlend mode="normal" in2="BackgroundImageFix" result="effect1_dropShadow_1_2"/>
<feBlend mode="normal" in="SourceGraphic" in2="effect1_dropShadow_1_2" result="shape"/>
</filter>
<filter id="filter4_d_1_2" x="260.091" y="215.909" width="57.8182" height="60.3636" filterUnits="userSpaceOnUse" color-interpolation-filters="sRGB">
<feFlood flood-opacity="0" result="BackgroundImageFix"/>
<feColorMatrix in="SourceAlpha" type="matrix" values="0 0 0 0 0 0 0 0 0 0 0 0 0 0 0 0 0 0 127 0" result="hardAlpha"/>
<feOffset dy="4"/>
<feGaussianBlur stdDeviation="2"/>
<feComposite in2="hardAlpha" operator="out"/>
<feColorMatrix type="matrix" values="0 0 0 0 0 0 0 0 0 0 0 0 0 0 0 0 0 0 0.25 0"/>
<feBlend mode="normal" in2="BackgroundImageFix" result="effect1_dropShadow_1_2"/>
<feBlend mode="normal" in="SourceGraphic" in2="effect1_dropShadow_1_2" result="shape"/>
</filter>
</defs>
</svg>
